<svg xmlns="http://www.w3.org/2000/svg" viewBox="0 0 24 24"><path d="M21.9 14.3c.2-1.8-.4-3.6-1.7-4.9-.7-.7-1.6-1.2-2.5-1.5-.9-.2-1.8-.1-2.7.2-1.8.6-3.2 1.9-4 3.5-.8-1.6-2.2-2.9-4-3.5-.9-.3-1.8-.4-2.7-.2-.9.3-1.8.8-2.5 1.5C1.5 10.7.9 12.5 1.1 14.3c.3 3.1 3 5.6 5.9 5.6h.5c.4 0 .8-.1 1.1-.4.3-.3.5-.7.5-1.1s-.2-1-.5-1.3c-.3-.3-.7-.5-1.1-.5h-.5c-1.6 0-3-1.2-3.2-2.8-.1-1 .3-1.9 1-2.6.7-.7 1.6-1 2.6-1 .6 0 1.1.2 1.6.5 1.1.7 1.8 1.8 2 3 .1.4.4.7.8.7s.7-.3.8-.7c.2-1.2.9-2.3 2-3 .5-.3 1-.5 1.6-.5 1 0 1.9.3 2.6 1 .7.7 1.1 1.6 1 2.6-.2 1.6-1.6 2.8-3.2 2.8h-.5c-.4 0-.8.2-1.1.5-.3.3-.5.7-.5 1.1s.2.8.5 1.1c.3.3.7.4 1.1.4h.5c2.9 0 5.6-2.5 5.9-5.6z"/></svg>